<svg width="24" height="24" viewBox="0 0 24 24" fill="none" xmlns="http://www.w3.org/2000/svg">
<g clip-path="url(#clip0_1957_15820)">
<path d="M10.27 11.9997H13.73C13.9482 11.9999 14.1638 11.9524 14.3618 11.8606C14.5598 11.7688 14.7354 11.635 14.8763 11.4683C15.0172 11.3017 15.1201 11.1064 15.1777 10.8959C15.2354 10.6854 15.2464 10.4649 15.21 10.2497L14.91 8.45973C14.7929 7.77195 14.436 7.14789 13.9025 6.69831C13.369 6.24873 12.6934 6.00271 11.9958 6.00391C11.2981 6.00511 10.6234 6.25345 10.0915 6.70486C9.55952 7.15627 9.20471 7.78155 9.09 8.46973L8.79 10.2597C8.64 11.1697 9.34 11.9997 10.27 11.9997ZM1.66 11.1097C1.53 11.3697 1.48 11.6797 1.56 11.9897C1.72 12.6797 2.32 13.0197 3.09 12.9897H5.04C5.87 12.9897 6.55 12.4097 6.55 11.6997C6.55 11.5597 6.52 11.4297 6.48 11.2997C6.47 11.2697 6.47 11.2497 6.49 11.2197C6.58 11.0597 6.63 10.8797 6.63 10.6897C6.63 10.3797 6.49 10.0897 6.27 9.86973C6.24 9.83973 6.24 9.80973 6.25 9.76973C6.32 9.56973 6.32 9.33973 6.26 9.11973C6.18579 8.91285 6.05236 8.73238 5.87632 8.6008C5.70028 8.46921 5.48942 8.39233 5.27 8.37973C5.25685 8.38015 5.24377 8.37768 5.23167 8.3725C5.21958 8.36731 5.20877 8.35954 5.2 8.34973C5.03 8.13973 4.72 7.99973 4.37 7.99973C4.07 7.99973 3.8 8.09973 3.62 8.25973C3.59 8.28973 3.56 8.28973 3.53 8.27973C3.35111 8.20723 3.15776 8.17749 2.96535 8.19289C2.77295 8.20828 2.58679 8.26839 2.4217 8.36841C2.25661 8.46843 2.11716 8.60561 2.01444 8.76903C1.91171 8.93245 1.84856 9.1176 1.83 9.30973C1.83 9.32973 1.82 9.34973 1.8 9.36973C1.51 9.62973 1.34 10.0197 1.39 10.4197C1.42 10.6397 1.51 10.8497 1.64 11.0197C1.67 11.0397 1.67 11.0797 1.66 11.1097ZM16.24 13.6497C15.07 13.1297 13.63 12.7497 12 12.7497C10.37 12.7497 8.93 13.1397 7.76 13.6497C7.23305 13.8873 6.78631 14.2726 6.47392 14.7589C6.16153 15.2452 5.99691 15.8117 6 16.3897V17.9997H18V16.3897C18 15.2097 17.32 14.1297 16.24 13.6497ZM1.22 14.5797C0.857712 14.7346 0.548924 14.9925 0.332018 15.3214C0.115113 15.6503 -0.000343686 16.0357 7.68494e-07 16.4297V17.9997H4.5V16.3897C4.5 15.5597 4.73 14.7797 5.13 14.0997C4.76 14.0397 4.39 13.9997 4 13.9997C3.01 13.9997 2.07 14.2097 1.22 14.5797ZM22.78 14.5797C21.9031 14.1971 20.9567 13.9997 20 13.9997C19.61 13.9997 19.24 14.0397 18.87 14.0997C19.27 14.7797 19.5 15.5597 19.5 16.3897V17.9997H24V16.4297C24 15.6197 23.52 14.8997 22.78 14.5797ZM22 10.9997V10.4997C22 9.39973 21.1 8.49973 20 8.49973H18C17.58 8.49973 17.35 8.97973 17.61 9.30973L18.31 9.93973C18.12 10.2497 18 10.6097 18 10.9997C18 12.0997 18.9 12.9997 20 12.9997C21.1 12.9997 22 12.0997 22 10.9997Z" fill="#1F3D94"/>
</g>
<defs>
<clipPath id="clip0_1957_15820">
<rect width="24" height="24" fill="white"/>
</clipPath>
</defs>
</svg>
