<svg width="92" height="92" viewBox="0 0 92 92" fill="none" xmlns="http://www.w3.org/2000/svg">
<path d="M46 4.33325V20.9999M75.4625 16.5374L63.6771 28.3228M87.6667 45.9999H71M75.4625 75.4624L63.6771 63.677M46 87.6666V70.9999M16.5375 75.4624L28.323 63.677M4.33337 45.9999H21M16.5375 16.5374L28.323 28.3228M30.0563 7.50408L33.2438 15.2041M7.50421 30.0541L15.2042 33.2416M7.50421 61.9457L15.2042 58.7562M30.0563 84.4958L33.2438 76.7958M61.9459 84.4958L58.7563 76.7958M84.4959 61.9457L76.7959 58.7562M84.4959 30.0541L76.7959 33.2416M61.9459 7.50408L58.7563 15.2041" stroke="#1F3D94" stroke-width="8.33333" stroke-linecap="round" stroke-linejoin="round"/>
</svg>
