<svg width="44" height="38" viewBox="0 0 44 38" fill="none" xmlns="http://www.w3.org/2000/svg">
<path d="M39.75 27.3327V15.041L22.9792 24.1556C22.3542 24.5029 21.6945 24.6765 21 24.6765C20.3056 24.6765 19.6459 24.5029 19.0209 24.1556L1.41668 14.5723C1.03474 14.364 0.765296 14.1035 0.608352 13.791C0.451407 13.4785 0.373629 13.1313 0.375018 12.7494C0.375018 12.3674 0.453491 12.0202 0.610435 11.7077C0.76738 11.3952 1.03613 11.1348 1.41668 10.9265L19.0209 1.34313C19.3334 1.16952 19.6549 1.03896 19.9854 0.951464C20.316 0.863964 20.6542 0.820909 21 0.822298C21.3472 0.822298 21.6861 0.866048 22.0167 0.953548C22.3472 1.04105 22.6681 1.17091 22.9792 1.34313L42.8229 12.1765C43.1702 12.3501 43.4396 12.6022 43.6313 12.9327C43.8229 13.2633 43.9181 13.6188 43.9167 13.9994V27.3327C43.9167 27.923 43.7167 28.4181 43.3167 28.8181C42.9167 29.2181 42.4222 29.4174 41.8334 29.416C41.2431 29.416 40.7479 29.216 40.3479 28.816C39.9479 28.416 39.7486 27.9216 39.75 27.3327ZM19.0209 36.6556L8.60419 31.0306C7.90974 30.6487 7.37155 30.1279 6.9896 29.4681C6.60766 28.8084 6.41669 28.0966 6.41669 27.3327V19.416L19.0209 26.239C19.6459 26.5862 20.3056 26.7598 21 26.7598C21.6945 26.7598 22.3542 26.5862 22.9792 26.239L35.5834 19.416V27.3327C35.5834 28.0966 35.3924 28.8084 35.0104 29.4681C34.6285 30.1279 34.0903 30.6487 33.3959 31.0306L22.9792 36.6556C22.6667 36.8292 22.3459 36.9598 22.0167 37.0473C21.6875 37.1348 21.3486 37.1779 21 37.1765C20.6528 37.1765 20.3139 37.1327 19.9834 37.0452C19.6528 36.9577 19.332 36.8279 19.0209 36.6556Z" fill="#1F3D94"/>
</svg>
