<svg width="40" height="39" viewBox="0 0 40 39" fill="none" xmlns="http://www.w3.org/2000/svg">
<path d="M39.7649 36.6017C36.6771 31.2658 31.8294 27.5216 26.1966 25.9337C28.9351 24.5416 31.1251 22.2678 32.4132 19.4788C33.7014 16.6898 34.0126 13.5483 33.2969 10.5608C32.5812 7.57324 30.8801 4.91383 28.468 3.01135C26.0559 1.10887 23.0733 0.0742187 20.0013 0.0742188C16.9292 0.0742188 13.9466 1.10887 11.5345 3.01135C9.12244 4.91383 7.42138 7.57324 6.70563 10.5608C5.98989 13.5483 6.30119 16.6898 7.58934 19.4788C8.87748 22.2678 11.0674 24.5416 13.806 25.9337C8.17314 27.5197 3.32549 31.2638 0.237599 36.6017C0.152809 36.7351 0.0958759 36.8842 0.0702246 37.0402C0.0445733 37.1961 0.0507341 37.3557 0.0883358 37.5092C0.125938 37.6627 0.194203 37.807 0.289026 37.9334C0.383849 38.0599 0.50327 38.1659 0.640104 38.2449C0.776938 38.324 0.928358 38.3746 1.08525 38.3937C1.24215 38.4128 1.40128 38.3999 1.55307 38.3558C1.70486 38.3118 1.84618 38.2375 1.96851 38.1375C2.09085 38.0374 2.19168 37.9136 2.26494 37.7736C6.0169 31.2911 12.6458 27.422 20.0013 27.422C27.3567 27.422 33.9856 31.2911 37.7376 37.7736C37.8109 37.9136 37.9117 38.0374 38.034 38.1375C38.1564 38.2375 38.2977 38.3118 38.4495 38.3558C38.6013 38.3999 38.7604 38.4128 38.9173 38.3937C39.0742 38.3746 39.2256 38.324 39.3624 38.2449C39.4993 38.1659 39.6187 38.0599 39.7135 37.9334C39.8083 37.807 39.8766 37.6627 39.9142 37.5092C39.9518 37.3557 39.958 37.1961 39.9323 37.0402C39.9067 36.8842 39.8497 36.7351 39.7649 36.6017ZM8.67315 13.7501C8.67315 11.5096 9.33753 9.31946 10.5823 7.45656C11.827 5.59366 13.5962 4.1417 15.6662 3.2843C17.7361 2.42691 20.0138 2.20257 22.2113 2.63967C24.4087 3.07677 26.4272 4.15567 28.0115 5.73993C29.5957 7.3242 30.6746 9.34268 31.1117 11.5401C31.5488 13.7376 31.3245 16.0153 30.4671 18.0852C29.6097 20.1552 28.1577 21.9244 26.2948 23.1691C24.4319 24.4139 22.2418 25.0783 20.0013 25.0783C16.998 25.0746 14.1187 23.88 11.9951 21.7563C9.87142 19.6327 8.67676 16.7534 8.67315 13.7501Z" fill="#1F3D94"/>
</svg>
