<svg width="100" height="100" viewBox="0 0 208 201" fill="none" xmlns="http://www.w3.org/2000/svg">
<path d="M202.53 32.4106L106.53 0.410593C104.888 -0.136864 103.112 -0.136864 101.47 0.410593L5.47 32.4106C3.87705 32.9416 2.49157 33.9604 1.50983 35.3226C0.528097 36.6849 -0.000124423 38.3215 2.19836e-08 40.0006V120.001C2.19836e-08 122.122 0.842854 124.157 2.34315 125.657C3.84344 127.158 5.87827 128.001 8 128.001C10.1217 128.001 12.1566 127.158 13.6569 125.657C15.1571 124.157 16 122.122 16 120.001V51.1006L49.59 62.2906C40.6656 76.7086 37.8277 94.079 41.6994 110.588C45.5711 127.096 55.8359 141.394 70.24 150.341C52.24 157.401 36.68 170.171 25.3 187.631C24.7082 188.51 24.2971 189.499 24.0906 190.539C23.8842 191.579 23.8865 192.649 24.0974 193.688C24.3084 194.727 24.7237 195.714 25.3193 196.591C25.915 197.468 26.679 198.218 27.567 198.797C28.455 199.376 29.4493 199.773 30.4921 199.965C31.5348 200.156 32.6053 200.139 33.6412 199.913C34.677 199.687 35.6577 199.258 36.5262 198.65C37.3946 198.041 38.1336 197.267 38.7 196.371C53.77 173.251 77.57 160.001 104 160.001C130.43 160.001 154.23 173.251 169.3 196.371C170.473 198.115 172.286 199.327 174.346 199.745C176.406 200.163 178.547 199.754 180.308 198.605C182.068 197.457 183.306 195.662 183.754 193.608C184.202 191.555 183.823 189.407 182.7 187.631C171.32 170.171 155.7 157.401 137.76 150.341C152.15 141.394 162.405 127.106 166.276 110.609C170.148 94.1128 167.319 76.7544 158.41 62.3406L202.53 47.6406C204.123 47.1099 205.509 46.0912 206.491 44.729C207.473 43.3667 208.002 41.7299 208.002 40.0506C208.002 38.3712 207.473 36.7345 206.491 35.3722C205.509 34.01 204.123 32.9913 202.53 32.4606V32.4106ZM152 96.0006C152.002 103.589 150.205 111.07 146.756 117.83C143.307 124.589 138.305 130.435 132.159 134.886C126.014 139.338 118.9 142.27 111.403 143.44C103.905 144.61 96.2364 143.986 89.0265 141.619C81.8166 139.252 75.2707 135.209 69.9259 129.822C64.5811 124.435 60.5897 117.857 58.2791 110.629C55.9685 103.401 55.4047 95.7279 56.6338 88.2395C57.863 80.7512 60.85 73.661 65.35 67.5506L101.47 79.5506C103.112 80.0981 104.888 80.0981 106.53 79.5506L142.65 67.5506C148.728 75.7906 152.005 85.7616 152 96.0006Z" fill="#1F3D94"/>
</svg>
